<svg fill="none" height="18" viewBox="0 0 20 18" width="20" xmlns="http://www.w3.org/2000/svg">
    <path
        d="M18.88 3.71492C18.158 3.00147 17.1851 2.59938 16.17 2.59491H14.75C14.6461 2.59528 14.5432 2.57516 14.4471 2.53569C14.351 2.49623 14.2637 2.43819 14.19 2.36492L13.04 1.21492C12.6096 0.786482 12.0273 0.545632 11.42 0.544922H8.58003C7.97276 0.545632 7.39042 0.786482 6.96004 1.21492L5.81005 2.36492C5.73641 2.43819 5.64903 2.49623 5.55294 2.53569C5.45685 2.57516 5.35393 2.59528 5.25005 2.59491H3.83004C3.32586 2.59358 2.82642 2.69209 2.3605 2.88472C1.89457 3.07735 1.47136 3.36031 1.11532 3.71729C0.759272 4.07426 0.477422 4.49817 0.286002 4.9646C0.0945923 5.43103 -0.00258762 5.93075 5.23792e-05 6.43492V13.6249C-0.00126762 14.1283 0.0968925 14.6269 0.288902 15.0922C0.480912 15.5574 0.762982 15.9802 1.11889 16.3361C1.4748 16.692 1.89754 16.9741 2.36281 17.1661C2.82809 17.3581 3.32671 17.4563 3.83004 17.4549H16.17C17.1855 17.4526 18.1592 17.0502 18.88 16.3349C19.236 15.9793 19.5182 15.5567 19.7104 15.0917C19.9026 14.6266 20.001 14.1282 20 13.6249V6.43492C20.0013 5.93018 19.903 5.43015 19.7108 4.96343C19.5186 4.4967 19.2363 4.07245 18.88 3.71492ZM9.96003 13.1949C9.23223 13.1949 8.52073 12.9791 7.91555 12.5747C7.31038 12.1704 6.8387 11.5956 6.56017 10.9232C6.28164 10.2508 6.20877 9.51088 6.35076 8.79698C6.49275 8.08318 6.84324 7.42738 7.3579 6.91277C7.87256 6.39811 8.52823 6.04762 9.24213 5.90563C9.95593 5.76363 10.6958 5.83651 11.3683 6.11504C12.0407 6.39357 12.6155 6.86524 13.0198 7.47038C13.4242 8.07558 13.64 8.78708 13.64 9.51488C13.6374 10.4901 13.2488 11.4246 12.5593 12.1142C11.8697 12.8037 10.9352 13.1923 9.96003 13.1949Z"
        fill="url(#paint0_linear_157_3662)" />
    <defs>
        <linearGradient gradientUnits="userSpaceOnUse" id="paint0_linear_157_3662" x1="1.02041"
            x2="20.2385" y1="4.42012" y2="4.7817">
            <stop stop-color="#1B98E0" />
            <stop offset="1" stop-color="#1681E4" />
        </linearGradient>
    </defs>
</svg>
