<svg fill="none" height="24" viewBox="0 0 24 24" width="24" xmlns="http://www.w3.org/2000/svg">
    <circle cx="12" cy="12" fill="url(#paint0_linear_3468_4088)" r="10.6" stroke="white"
        stroke-width="1.2" />
    <path
        d="M15.5156 9.15664C15.3722 8.64753 15.0999 8.18402 14.725 7.8109C14.3501 7.43778 13.8854 7.16765 13.3756 7.02664C13.2262 6.98917 13.0699 6.98917 12.9206 7.02664C12.7756 7.0713 12.6436 7.15019 12.5356 7.25664L11.6256 8.17164L7.71056 12.0866C7.56789 12.2176 7.47584 12.3946 7.45055 12.5866L7.20555 14.2966C7.18427 14.4341 7.19627 14.5747 7.24056 14.7066C7.28539 14.8378 7.35883 14.9573 7.45555 15.0566C7.55143 15.1563 7.6697 15.2318 7.80055 15.2766C7.89431 15.3065 7.99215 15.3217 8.09056 15.3216C8.13208 15.3266 8.17404 15.3266 8.21556 15.3216L9.94057 15.0766C10.1276 15.0425 10.3011 14.9558 10.4406 14.8266L15.2756 9.99164C15.3796 9.88263 15.4567 9.75078 15.5006 9.60664C15.5416 9.46001 15.5467 9.30568 15.5156 9.15664ZM14.7806 9.40664C14.7752 9.43114 14.7631 9.45364 14.7456 9.47164L14.0956 10.1216L12.4206 8.46664L13.0656 7.81664C13.0841 7.79868 13.1062 7.78502 13.1306 7.77664C13.1502 7.77155 13.1709 7.77155 13.1906 7.77664C13.5683 7.88219 13.9129 8.08216 14.1919 8.35771C14.471 8.63325 14.6753 8.97531 14.7856 9.35164C14.7879 9.37012 14.7862 9.38888 14.7806 9.40664Z"
        fill="white" />
    <path
        d="M15.6095 17.0015H7.39453C7.29508 17.0015 7.19969 16.962 7.12936 16.8916C7.05904 16.8213 7.01953 16.7259 7.01953 16.6265C7.01953 16.527 7.05904 16.4316 7.12936 16.3613C7.19969 16.291 7.29508 16.2515 7.39453 16.2515H15.6045C15.704 16.2515 15.7994 16.291 15.8697 16.3613C15.94 16.4316 15.9795 16.527 15.9795 16.6265C15.9795 16.7259 15.94 16.8213 15.8697 16.8916C15.7994 16.962 15.704 17.0015 15.6045 17.0015H15.6095Z"
        fill="white" />
    <defs>
        <linearGradient gradientUnits="userSpaceOnUse" id="paint0_linear_3468_4088" x1="3.02041"
            x2="22.2404" y1="6.58333" y2="6.88907">
            <stop stop-color="#1B98E0" />
            <stop offset="1" stop-color="#1681E4" />
        </linearGradient>
    </defs>
</svg>
