<svg fill="none" height="20" viewBox="0 0 20 20" width="20" xmlns="http://www.w3.org/2000/svg">
    <path
        d="M14.25 0.75H5.75C4.22582 0.75264 2.76477 1.35928 1.68701 2.43704C0.60925 3.5148 0.00264 4.97582 0 6.5V13.5C0.00264 15.0242 0.60925 16.4852 1.68701 17.5629C2.76477 18.6407 4.22582 19.2474 5.75 19.25H14.25C15.7742 19.2474 17.2352 18.6407 18.313 17.5629C19.3907 16.4852 19.9974 15.0242 20 13.5V6.5C19.9974 4.97582 19.3907 3.5148 18.313 2.43704C17.2352 1.35928 15.7742 0.75264 14.25 0.75ZM6 4.09998C6.63917 4.09998 7.25214 4.35388 7.7041 4.80585C8.1561 5.25781 8.41 5.87081 8.41 6.50998C8.41 7.14915 8.1561 7.76215 7.7041 8.2141C7.25214 8.6661 6.63917 8.92 6 8.92C5.68351 8.9193 5.37027 8.8563 5.07812 8.7346C4.78598 8.6129 4.52069 8.4348 4.29736 8.2106C3.84634 7.75767 3.59364 7.14415 3.59497 6.50497C3.5963 5.8658 3.85154 5.25336 4.30444 4.80234C4.75734 4.35131 5.37084 4.09865 6.01001 4.09998H6ZM18.5 10.78L16.3201 9.09C15.6921 8.6523 14.9301 8.4495 14.1677 8.5172C13.4053 8.5848 12.6911 8.9186 12.15 9.46L9.8201 11.79C9.3322 12.262 8.6986 12.5546 8.0229 12.62C7.34726 12.6854 6.6693 12.5197 6.09998 12.15C5.82251 11.9667 5.49143 11.8821 5.16003 11.91C4.82724 11.945 4.51656 12.0933 4.28003 12.33L1.84998 15.17C1.58748 14.5689 1.46771 13.9151 1.5 13.26L3.18005 11.31C3.66449 10.8204 4.30263 10.5125 4.9873 10.4378C5.67198 10.3631 6.3615 10.5263 6.94006 10.9C7.21668 11.0873 7.55012 11.1719 7.88257 11.139C8.215 11.1061 8.5254 10.9579 8.76 10.72L11.09 8.4C11.8873 7.60532 12.9399 7.11824 14.0618 7.0249C15.1836 6.93157 16.3023 7.238 17.22 7.88998L18.5 8.89V10.78Z"
        fill="url(#paint0_linear_157_3656)" />
    <defs>
        <linearGradient gradientUnits="userSpaceOnUse" id="paint0_linear_157_3656" x1="1.02041"
            x2="20.2396" y1="4.98958" y2="5.3201">
            <stop stop-color="#1B98E0" />
            <stop offset="1" stop-color="#1681E4" />
        </linearGradient>
    </defs>
</svg>
