<svg fill="none" height="49" viewBox="0 0 49 49" width="49" xmlns="http://www.w3.org/2000/svg">
    <path
        d="M24.432 3.5769C20.0413 3.59822 15.7682 4.99556 12.2157 7.57165C8.66322 10.1477 6.01066 13.7725 4.63238 17.9345C3.25411 22.0966 3.21973 26.5856 4.53403 30.7681C5.84835 34.9507 8.445 38.6157 11.9576 41.2458C12.0598 41.3452 12.1772 41.4279 12.3053 41.4908C15.8572 44.0471 20.1248 45.423 24.5034 45.423C28.8822 45.423 33.1499 44.0471 36.7018 41.4908C36.8359 41.4191 36.9596 41.3299 37.0699 41.2253C40.5822 38.5863 43.1747 34.9117 44.4807 30.7212C45.7866 26.5304 45.7398 22.0359 44.347 17.8734C42.9544 13.7107 40.2859 10.0906 36.7193 7.52504C33.153 4.95948 28.8687 3.57833 24.4728 3.5769H24.432ZM24.432 11.2536C26.1172 11.2334 27.7703 11.7146 29.1807 12.6359C30.5911 13.5573 31.6946 14.877 32.351 16.4269C33.0072 17.9768 33.1862 19.6868 32.8655 21.3387C32.5447 22.9906 31.7385 24.5098 30.5494 25.7025C29.3606 26.8953 27.843 27.7077 26.1898 28.036C24.5369 28.3643 22.8233 28.1938 21.2678 27.5462C19.7121 26.8986 18.3849 25.8032 17.4552 24.3996C16.5255 22.9961 16.0355 21.3479 16.0475 19.6653C16.0634 17.4463 16.9506 15.3221 18.5184 13.7492C20.0862 12.1763 22.2094 11.2803 24.432 11.2536ZM33.8798 39.6735C31.0478 41.4344 27.7785 42.3677 24.4422 42.3677C21.1059 42.3677 17.8365 41.4344 15.0046 39.6735C14.1242 39.1394 13.2958 38.5242 12.5302 37.8362C13.6897 36.1869 15.18 34.7963 16.9065 33.7528C19.1863 32.3992 21.7896 31.6848 24.4422 31.6848C27.0947 31.6848 29.698 32.3992 31.978 33.7528C33.7044 34.7963 35.1946 36.1869 36.3541 37.8362C35.5885 38.5242 34.7601 39.1394 33.8798 39.6735Z"
        fill="#6F6F6F" />
</svg>
